SplineFontDB: 3.2
FontName: SuperMarioRPGFontRip
FullName: Super Mario RPG Font Rip
FamilyName: Super Mario RPG Font Rip
Weight: Regular
Copyright: Copyright (c) 1996, Nintendo / Square\nCopyright (c) 2022, geno1024
UComments: "2022-11-9: Created with FontForge (http://fontforge.org)"
Version: 001.000
ItalicAngle: 0
UnderlinePosition: -100
UnderlineWidth: 50
Ascent: 800
Descent: 200
InvalidEm: 0
LayerCount: 2
Layer: 0 0 "+gMxmbwAA" 1
Layer: 1 0 "+Uk1mbwAA" 0
XUID: [1021 992 -1131750718 4590353]
OS2Version: 0
OS2_WeightWidthSlopeOnly: 0
OS2_UseTypoMetrics: 1
CreationTime: 1667926513
ModificationTime: 1667930123
OS2TypoAscent: 0
OS2TypoAOffset: 1
OS2TypoDescent: 0
OS2TypoDOffset: 1
OS2TypoLinegap: 0
OS2WinAscent: 0
OS2WinAOffset: 1
OS2WinDescent: 0
OS2WinDOffset: 1
HheadAscent: 0
HheadAOffset: 1
HheadDescent: 0
HheadDOffset: 1
OS2Vendor: 'PfEd'
MarkAttachClasses: 1
DEI: 91125
Encoding: ISO8859-1
UnicodeInterp: none
NameList: AGL For New Fonts
DisplaySize: -48
AntiAlias: 1
FitToEm: 0
WinInfo: 48 16 4
BeginPrivate: 0
EndPrivate
BeginChars: 256 65

StartChar: A
Encoding: 65 65 0
Width: 500
Flags: HW
LayerCount: 2
Fore
SplineSet
500 250 m 1
 500 312.5 l 1
 500 375 l 1
 437.5 375 l 1
 437.5 562.5 l 1
 375 562.5 l 1
 375 812.5 l 1
 250 812.5 l 1
 250 687.5 l 1
 187.5 687.5 l 1
 187.5 562.5 l 1
 125 562.5 l 1
 125 375 l 1
 62.5 375 l 1
 62.5 187.5 l 1
 125 187.5 l 1
 125 250 l 1
 187.5 250 l 1
 187.5 312.5 l 1
 375 312.5 l 1
 375 250 l 1
 437.5 250 l 1
 437.5 187.5 l 1
 500 187.5 l 1
 500 250 l 1
312.5 375 m 1
 250 375 l 1
 187.5 375 l 1
 187.5 500 l 1
 250 500 l 1
 250 625 l 1
 312.5 625 l 1
 312.5 500 l 1
 375 500 l 1
 375 375 l 1
 312.5 375 l 1
EndSplineSet
EndChar

StartChar: B
Encoding: 66 66 1
Width: 500
Flags: HW
LayerCount: 2
Fore
SplineSet
250 562.5 m 1
 250 500 l 1
 312.5 500 l 1
 312.5 437.5 l 1
 375 437.5 l 1
 375 312.5 l 1
 312.5 312.5 l 1
 312.5 250 l 1
 125 250 l 1
 125 625 l 1
 187.5 625 l 1
 187.5 750 l 1
 312.5 750 l 1
 312.5 687.5 l 1
 375 687.5 l 1
 375 625 l 1
 312.5 625 l 1
 312.5 562.5 l 1
 250 562.5 l 1
312.5 187.5 m 1
 375 187.5 l 1
 375 250 l 1
 437.5 250 l 1
 437.5 750 l 1
 375 750 l 1
 375 812.5 l 1
 125 812.5 l 1
 125 750 l 1
 0 750 l 1
 0 625 l 1
 62.5 625 l 1
 62.5 187.5 l 1
 312.5 187.5 l 1
EndSplineSet
EndChar

StartChar: C
Encoding: 67 67 2
Width: 500
Flags: HW
LayerCount: 2
Fore
SplineSet
312.5 187.5 m 1
 375 187.5 l 1
 375 250 l 1
 437.5 250 l 1
 437.5 437.5 l 1
 375 437.5 l 1
 375 312.5 l 1
 312.5 312.5 l 1
 312.5 250 l 1
 187.5 250 l 1
 187.5 312.5 l 1
 125 312.5 l 1
 125 562.5 l 1
 187.5 562.5 l 1
 187.5 687.5 l 1
 250 687.5 l 1
 250 750 l 1
 312.5 750 l 1
 312.5 687.5 l 1
 375 687.5 l 1
 375 625 l 1
 437.5 625 l 1
 437.5 750 l 1
 375 750 l 1
 375 812.5 l 1
 187.5 812.5 l 1
 187.5 750 l 1
 125 750 l 1
 125 625 l 1
 62.5 625 l 1
 62.5 250 l 1
 125 250 l 1
 125 187.5 l 1
 312.5 187.5 l 1
EndSplineSet
EndChar

StartChar: D
Encoding: 68 68 3
Width: 500
Flags: HW
LayerCount: 2
Fore
SplineSet
250 187.5 m 1
 312.5 187.5 l 1
 312.5 312.5 l 1
 375 312.5 l 1
 375 750 l 1
 312.5 750 l 1
 312.5 812.5 l 1
 62.5 812.5 l 1
 62.5 750 l 1
 0 750 l 1
 0 625 l 1
 62.5 625 l 1
 62.5 187.5 l 1
 250 187.5 l 1
187.5 250 m 1
 125 250 l 1
 125 687.5 l 1
 187.5 687.5 l 1
 187.5 750 l 1
 250 750 l 1
 250 687.5 l 1
 312.5 687.5 l 1
 312.5 375 l 1
 250 375 l 1
 250 312.5 l 1
 187.5 312.5 l 1
 187.5 250 l 1
EndSplineSet
EndChar

StartChar: E
Encoding: 69 69 4
Width: 500
Flags: HW
LayerCount: 2
Fore
SplineSet
375 250 m 1
 312.5 250 l 1
 187.5 250 l 1
 187.5 312.5 l 1
 125 312.5 l 1
 125 500 l 1
 312.5 500 l 1
 312.5 562.5 l 1
 125 562.5 l 1
 125 687.5 l 1
 187.5 687.5 l 1
 187.5 750 l 1
 375 750 l 1
 375 812.5 l 1
 62.5 812.5 l 1
 62.5 750 l 1
 0 750 l 1
 0 625 l 1
 62.5 625 l 1
 62.5 187.5 l 1
 437.5 187.5 l 1
 437.5 250 l 1
 375 250 l 1
EndSplineSet
EndChar

StartChar: F
Encoding: 70 70 5
Width: 500
Flags: HW
LayerCount: 2
Fore
SplineSet
125 250 m 1
 125 312.5 l 1
 125 437.5 l 1
 187.5 437.5 l 1
 187.5 500 l 1
 312.5 500 l 1
 312.5 562.5 l 1
 125 562.5 l 1
 125 687.5 l 1
 187.5 687.5 l 1
 187.5 750 l 1
 375 750 l 1
 375 812.5 l 1
 62.5 812.5 l 1
 62.5 750 l 1
 0 750 l 1
 0 625 l 1
 62.5 625 l 1
 62.5 187.5 l 1
 125 187.5 l 1
 125 250 l 1
EndSplineSet
EndChar

StartChar: G
Encoding: 71 71 6
Width: 500
Flags: HW
LayerCount: 2
Fore
SplineSet
187.5 500 m 1
 187.5 437.5 l 1
 250 437.5 l 1
 250 375 l 1
 187.5 375 l 1
 187.5 250 l 1
 125 250 l 1
 125 312.5 l 1
 62.5 312.5 l 1
 62.5 625 l 1
 125 625 l 1
 125 750 l 1
 250 750 l 1
 250 687.5 l 1
 375 687.5 l 1
 375 750 l 1
 312.5 750 l 1
 312.5 812.5 l 1
 62.5 812.5 l 1
 62.5 687.5 l 1
 0 687.5 l 1
 0 250 l 1
 62.5 250 l 1
 62.5 187.5 l 1
 312.5 187.5 l 1
 312.5 375 l 1
 375 375 l 1
 375 437.5 l 1
 437.5 437.5 l 1
 437.5 500 l 1
 187.5 500 l 1
EndSplineSet
EndChar

StartChar: H
Encoding: 72 72 7
Width: 500
Flags: HW
LayerCount: 2
Fore
SplineSet
437.5 250 m 1
 437.5 312.5 l 1
 437.5 812.5 l 1
 375 812.5 l 1
 375 500 l 1
 187.5 500 l 1
 187.5 562.5 l 1
 125 562.5 l 1
 125 812.5 l 1
 62.5 812.5 l 1
 62.5 187.5 l 1
 125 187.5 l 1
 125 437.5 l 1
 312.5 437.5 l 1
 312.5 375 l 1
 375 375 l 1
 375 187.5 l 1
 437.5 187.5 l 1
 437.5 250 l 1
EndSplineSet
EndChar

StartChar: I
Encoding: 73 73 8
Width: 500
Flags: HW
LayerCount: 2
Fore
SplineSet
125 250 m 1
 125 187.5 l 1
 312.5 187.5 l 1
 312.5 250 l 1
 250 250 l 1
 250 750 l 1
 312.5 750 l 1
 312.5 812.5 l 1
 125 812.5 l 1
 125 750 l 1
 187.5 750 l 1
 187.5 250 l 1
 125 250 l 1
EndSplineSet
EndChar

StartChar: J
Encoding: 74 74 9
Width: 500
Flags: HW
LayerCount: 2
Fore
SplineSet
62.5 312.5 m 1
 62.5 250 l 1
 125 250 l 1
 125 187.5 l 1
 312.5 187.5 l 1
 312.5 250 l 1
 375 250 l 1
 375 812.5 l 1
 312.5 812.5 l 1
 312.5 312.5 l 1
 250 312.5 l 1
 250 250 l 1
 187.5 250 l 1
 187.5 312.5 l 1
 62.5 312.5 l 1
EndSplineSet
EndChar

StartChar: K
Encoding: 75 75 10
Width: 500
Flags: HW
LayerCount: 2
Fore
SplineSet
437.5 250 m 1
 437.5 312.5 l 1
 375 312.5 l 1
 375 375 l 1
 312.5 375 l 1
 312.5 437.5 l 1
 250 437.5 l 1
 250 562.5 l 1
 312.5 562.5 l 1
 312.5 625 l 1
 375 625 l 1
 375 687.5 l 1
 437.5 687.5 l 1
 437.5 812.5 l 1
 375 812.5 l 1
 375 750 l 1
 312.5 750 l 1
 312.5 687.5 l 1
 250 687.5 l 1
 250 625 l 1
 187.5 625 l 1
 187.5 562.5 l 1
 125 562.5 l 1
 125 812.5 l 1
 62.5 812.5 l 1
 62.5 187.5 l 1
 125 187.5 l 1
 125 437.5 l 1
 187.5 437.5 l 1
 187.5 375 l 1
 250 375 l 1
 250 312.5 l 1
 312.5 312.5 l 1
 312.5 250 l 1
 375 250 l 1
 375 187.5 l 1
 437.5 187.5 l 1
 437.5 250 l 1
EndSplineSet
EndChar

StartChar: L
Encoding: 76 76 11
Width: 500
Flags: HW
LayerCount: 2
Fore
SplineSet
312.5 250 m 1
 250 250 l 1
 187.5 250 l 1
 187.5 312.5 l 1
 125 312.5 l 1
 125 812.5 l 1
 62.5 812.5 l 1
 62.5 187.5 l 1
 375 187.5 l 1
 375 250 l 1
 312.5 250 l 1
EndSplineSet
EndChar

StartChar: M
Encoding: 77 77 12
Width: 500
Flags: HW
LayerCount: 2
Fore
SplineSet
500 250 m 1
 500 312.5 l 1
 500 625 l 1
 437.5 625 l 1
 437.5 812.5 l 1
 375 812.5 l 1
 375 750 l 1
 312.5 750 l 1
 312.5 562.5 l 1
 250 562.5 l 1
 250 625 l 1
 187.5 625 l 1
 187.5 750 l 1
 125 750 l 1
 125 812.5 l 1
 62.5 812.5 l 1
 62.5 562.5 l 1
 0 562.5 l 1
 0 187.5 l 1
 62.5 187.5 l 1
 62.5 500 l 1
 125 500 l 1
 125 562.5 l 1
 187.5 562.5 l 1
 187.5 437.5 l 1
 250 437.5 l 1
 250 375 l 1
 312.5 375 l 1
 312.5 437.5 l 1
 375 437.5 l 1
 375 562.5 l 1
 437.5 562.5 l 1
 437.5 187.5 l 1
 500 187.5 l 1
 500 250 l 1
EndSplineSet
EndChar

StartChar: N
Encoding: 78 78 13
Width: 500
Flags: HW
LayerCount: 2
Fore
SplineSet
375 250 m 1
 375 312.5 l 1
 375 812.5 l 1
 312.5 812.5 l 1
 312.5 500 l 1
 250 500 l 1
 250 562.5 l 1
 187.5 562.5 l 1
 187.5 687.5 l 1
 125 687.5 l 1
 125 750 l 1
 62.5 750 l 1
 62.5 812.5 l 1
 0 812.5 l 1
 0 187.5 l 1
 62.5 187.5 l 1
 62.5 562.5 l 1
 125 562.5 l 1
 125 500 l 1
 187.5 500 l 1
 187.5 437.5 l 1
 250 437.5 l 1
 250 312.5 l 1
 312.5 312.5 l 1
 312.5 187.5 l 1
 375 187.5 l 1
 375 250 l 1
EndSplineSet
EndChar

StartChar: O
Encoding: 79 79 14
Width: 500
Flags: HW
LayerCount: 2
Fore
SplineSet
250 187.5 m 1
 312.5 187.5 l 1
 312.5 250 l 1
 375 250 l 1
 375 312.5 l 1
 437.5 312.5 l 1
 437.5 750 l 1
 375 750 l 1
 375 812.5 l 1
 125 812.5 l 1
 125 750 l 1
 62.5 750 l 1
 62.5 625 l 1
 0 625 l 1
 0 312.5 l 1
 62.5 312.5 l 1
 62.5 250 l 1
 125 250 l 1
 125 187.5 l 1
 250 187.5 l 1
250 250 m 1
 187.5 250 l 1
 187.5 312.5 l 1
 125 312.5 l 1
 125 437.5 l 1
 62.5 437.5 l 1
 62.5 562.5 l 1
 125 562.5 l 1
 125 687.5 l 1
 187.5 687.5 l 1
 187.5 750 l 1
 312.5 750 l 1
 312.5 687.5 l 1
 375 687.5 l 1
 375 437.5 l 1
 312.5 437.5 l 1
 312.5 312.5 l 1
 250 312.5 l 1
 250 250 l 1
EndSplineSet
EndChar

StartChar: P
Encoding: 80 80 15
Width: 500
Flags: HW
LayerCount: 2
Fore
SplineSet
0 687.5 m 1
 0 625 l 1
 62.5 625 l 1
 62.5 187.5 l 1
 125 187.5 l 1
 125 375 l 1
 187.5 375 l 1
 187.5 437.5 l 1
 375 437.5 l 1
 375 500 l 1
 437.5 500 l 1
 437.5 750 l 1
 375 750 l 1
 375 812.5 l 1
 125 812.5 l 1
 125 750 l 1
 62.5 750 l 1
 62.5 687.5 l 1
 0 687.5 l 1
250 500 m 1
 187.5 500 l 1
 187.5 562.5 l 1
 125 562.5 l 1
 125 687.5 l 1
 187.5 687.5 l 1
 187.5 750 l 1
 312.5 750 l 1
 312.5 687.5 l 1
 375 687.5 l 1
 375 562.5 l 1
 312.5 562.5 l 1
 312.5 500 l 1
 250 500 l 1
EndSplineSet
EndChar

StartChar: Q
Encoding: 81 81 16
Width: 500
Flags: HW
LayerCount: 2
Fore
SplineSet
187.5 437.5 m 1
 187.5 375 l 1
 250 375 l 1
 250 312.5 l 1
 125 312.5 l 1
 125 375 l 1
 62.5 375 l 1
 62.5 562.5 l 1
 125 562.5 l 1
 125 687.5 l 1
 187.5 687.5 l 1
 187.5 750 l 1
 312.5 750 l 1
 312.5 687.5 l 1
 375 687.5 l 1
 375 375 l 1
 312.5 375 l 1
 312.5 437.5 l 1
 187.5 437.5 l 1
375 187.5 m 1
 437.5 187.5 l 1
 437.5 250 l 1
 375 250 l 1
 375 312.5 l 1
 437.5 312.5 l 1
 437.5 750 l 1
 375 750 l 1
 375 812.5 l 1
 125 812.5 l 1
 125 750 l 1
 62.5 750 l 1
 62.5 625 l 1
 0 625 l 1
 0 312.5 l 1
 62.5 312.5 l 1
 62.5 250 l 1
 312.5 250 l 1
 312.5 187.5 l 1
 375 187.5 l 1
EndSplineSet
EndChar

StartChar: R
Encoding: 82 82 17
Width: 500
Flags: HW
LayerCount: 2
Fore
SplineSet
187.5 500 m 1
 187.5 437.5 l 1
 250 437.5 l 1
 250 375 l 1
 312.5 375 l 1
 312.5 250 l 1
 375 250 l 1
 375 187.5 l 1
 437.5 187.5 l 1
 437.5 312.5 l 1
 375 312.5 l 1
 375 437.5 l 1
 312.5 437.5 l 1
 312.5 500 l 1
 437.5 500 l 1
 437.5 562.5 l 1
 500 562.5 l 1
 500 750 l 1
 437.5 750 l 1
 437.5 812.5 l 1
 187.5 812.5 l 1
 187.5 750 l 1
 62.5 750 l 1
 62.5 687.5 l 1
 0 687.5 l 1
 0 562.5 l 1
 62.5 562.5 l 1
 62.5 187.5 l 1
 125 187.5 l 1
 125 625 l 1
 187.5 625 l 1
 187.5 687.5 l 1
 250 687.5 l 1
 250 750 l 1
 375 750 l 1
 375 687.5 l 1
 437.5 687.5 l 1
 437.5 625 l 1
 375 625 l 1
 375 562.5 l 1
 250 562.5 l 1
 250 500 l 1
 187.5 500 l 1
EndSplineSet
EndChar

StartChar: S
Encoding: 83 83 18
Width: 500
Flags: HW
LayerCount: 2
Fore
SplineSet
312.5 187.5 m 1
 375 187.5 l 1
 375 250 l 1
 437.5 250 l 1
 437.5 500 l 1
 375 500 l 1
 375 562.5 l 1
 250 562.5 l 1
 250 625 l 1
 187.5 625 l 1
 187.5 687.5 l 1
 250 687.5 l 1
 250 750 l 1
 312.5 750 l 1
 312.5 687.5 l 1
 375 687.5 l 1
 375 625 l 1
 437.5 625 l 1
 437.5 750 l 1
 375 750 l 1
 375 812.5 l 1
 187.5 812.5 l 1
 187.5 750 l 1
 125 750 l 1
 125 500 l 1
 312.5 500 l 1
 312.5 437.5 l 1
 375 437.5 l 1
 375 312.5 l 1
 312.5 312.5 l 1
 312.5 250 l 1
 187.5 250 l 1
 187.5 312.5 l 1
 125 312.5 l 1
 125 375 l 1
 62.5 375 l 1
 62.5 250 l 1
 125 250 l 1
 125 187.5 l 1
 312.5 187.5 l 1
EndSplineSet
EndChar

StartChar: T
Encoding: 84 84 19
Width: 500
Flags: HW
LayerCount: 2
Fore
SplineSet
62.5 812.5 m 1
 62.5 750 l 1
 187.5 750 l 1
 187.5 187.5 l 1
 250 187.5 l 1
 250 687.5 l 1
 312.5 687.5 l 1
 312.5 750 l 1
 437.5 750 l 1
 437.5 812.5 l 1
 62.5 812.5 l 1
EndSplineSet
EndChar

StartChar: U
Encoding: 85 85 20
Width: 500
Flags: HW
LayerCount: 2
Fore
SplineSet
250 187.5 m 1
 312.5 187.5 l 1
 312.5 250 l 1
 375 250 l 1
 375 312.5 l 1
 437.5 312.5 l 1
 437.5 812.5 l 1
 375 812.5 l 1
 375 375 l 1
 312.5 375 l 1
 312.5 312.5 l 1
 250 312.5 l 1
 250 250 l 1
 187.5 250 l 1
 187.5 312.5 l 1
 125 312.5 l 1
 125 812.5 l 1
 62.5 812.5 l 1
 62.5 250 l 1
 125 250 l 1
 125 187.5 l 1
 250 187.5 l 1
EndSplineSet
EndChar

StartChar: V
Encoding: 86 86 21
Width: 500
Flags: HW
LayerCount: 2
Fore
SplineSet
250 250 m 1
 250 312.5 l 1
 312.5 312.5 l 1
 312.5 500 l 1
 375 500 l 1
 375 625 l 1
 437.5 625 l 1
 437.5 812.5 l 1
 375 812.5 l 1
 375 687.5 l 1
 312.5 687.5 l 1
 312.5 562.5 l 1
 250 562.5 l 1
 250 437.5 l 1
 187.5 437.5 l 1
 187.5 500 l 1
 125 500 l 1
 125 625 l 1
 62.5 625 l 1
 62.5 812.5 l 1
 0 812.5 l 1
 0 562.5 l 1
 62.5 562.5 l 1
 62.5 437.5 l 1
 125 437.5 l 1
 125 312.5 l 1
 187.5 312.5 l 1
 187.5 187.5 l 1
 250 187.5 l 1
 250 250 l 1
EndSplineSet
EndChar

StartChar: W
Encoding: 87 87 22
Width: 500
Flags: HW
LayerCount: 2
Fore
SplineSet
375 250 m 1
 375 312.5 l 1
 375 375 l 1
 437.5 375 l 1
 437.5 562.5 l 1
 500 562.5 l 1
 500 812.5 l 1
 437.5 812.5 l 1
 437.5 625 l 1
 375 625 l 1
 375 437.5 l 1
 312.5 437.5 l 1
 312.5 625 l 1
 250 625 l 1
 250 750 l 1
 187.5 750 l 1
 187.5 625 l 1
 125 625 l 1
 125 500 l 1
 62.5 500 l 1
 62.5 812.5 l 1
 0 812.5 l 1
 0 437.5 l 1
 62.5 437.5 l 1
 62.5 187.5 l 1
 125 187.5 l 1
 125 375 l 1
 187.5 375 l 1
 187.5 500 l 1
 250 500 l 1
 250 375 l 1
 312.5 375 l 1
 312.5 187.5 l 1
 375 187.5 l 1
 375 250 l 1
EndSplineSet
EndChar

StartChar: X
Encoding: 88 88 23
Width: 500
Flags: HW
LayerCount: 2
Fore
SplineSet
0 812.5 m 1
 0 750 l 1
 62.5 750 l 1
 62.5 625 l 1
 125 625 l 1
 125 437.5 l 1
 62.5 437.5 l 1
 62.5 312.5 l 1
 0 312.5 l 1
 0 187.5 l 1
 62.5 187.5 l 1
 62.5 250 l 1
 125 250 l 1
 125 375 l 1
 187.5 375 l 1
 187.5 437.5 l 1
 250 437.5 l 1
 250 375 l 1
 312.5 375 l 1
 312.5 250 l 1
 375 250 l 1
 375 187.5 l 1
 437.5 187.5 l 1
 437.5 312.5 l 1
 375 312.5 l 1
 375 437.5 l 1
 312.5 437.5 l 1
 312.5 625 l 1
 375 625 l 1
 375 750 l 1
 437.5 750 l 1
 437.5 812.5 l 1
 312.5 812.5 l 1
 312.5 687.5 l 1
 250 687.5 l 1
 250 625 l 1
 187.5 625 l 1
 187.5 687.5 l 1
 125 687.5 l 1
 125 812.5 l 1
 0 812.5 l 1
EndSplineSet
EndChar

StartChar: Y
Encoding: 89 89 24
Width: 500
Flags: HW
LayerCount: 2
Fore
SplineSet
250 250 m 1
 250 312.5 l 1
 250 500 l 1
 312.5 500 l 1
 312.5 562.5 l 1
 375 562.5 l 1
 375 687.5 l 1
 437.5 687.5 l 1
 437.5 812.5 l 1
 375 812.5 l 1
 375 750 l 1
 312.5 750 l 1
 312.5 625 l 1
 250 625 l 1
 250 562.5 l 1
 187.5 562.5 l 1
 187.5 687.5 l 1
 125 687.5 l 1
 125 812.5 l 1
 62.5 812.5 l 1
 62.5 625 l 1
 125 625 l 1
 125 500 l 1
 187.5 500 l 1
 187.5 187.5 l 1
 250 187.5 l 1
 250 250 l 1
EndSplineSet
EndChar

StartChar: Z
Encoding: 90 90 25
Width: 500
Flags: HW
LayerCount: 2
Fore
SplineSet
62.5 812.5 m 1
 62.5 750 l 1
 312.5 750 l 1
 312.5 687.5 l 1
 250 687.5 l 1
 250 625 l 1
 187.5 625 l 1
 187.5 562.5 l 1
 125 562.5 l 1
 125 437.5 l 1
 62.5 437.5 l 1
 62.5 187.5 l 1
 437.5 187.5 l 1
 437.5 250 l 1
 125 250 l 1
 125 375 l 1
 187.5 375 l 1
 187.5 500 l 1
 250 500 l 1
 250 562.5 l 1
 312.5 562.5 l 1
 312.5 625 l 1
 375 625 l 1
 375 687.5 l 1
 437.5 687.5 l 1
 437.5 812.5 l 1
 62.5 812.5 l 1
EndSplineSet
EndChar

StartChar: a
Encoding: 97 97 26
Width: 500
Flags: HW
LayerCount: 2
Fore
SplineSet
125 687.5 m 1
 125 625 l 1
 250 625 l 1
 250 562.5 l 1
 312.5 562.5 l 1
 312.5 500 l 1
 125 500 l 1
 125 437.5 l 1
 62.5 437.5 l 1
 62.5 250 l 1
 125 250 l 1
 125 187.5 l 1
 312.5 187.5 l 1
 312.5 250 l 1
 375 250 l 1
 375 187.5 l 1
 437.5 187.5 l 1
 437.5 312.5 l 1
 375 312.5 l 1
 375 625 l 1
 312.5 625 l 1
 312.5 687.5 l 1
 125 687.5 l 1
250 250 m 1
 187.5 250 l 1
 187.5 312.5 l 1
 125 312.5 l 1
 125 375 l 1
 187.5 375 l 1
 187.5 437.5 l 1
 312.5 437.5 l 1
 312.5 312.5 l 1
 250 312.5 l 1
 250 250 l 1
EndSplineSet
EndChar

StartChar: b
Encoding: 98 98 27
Width: 500
Flags: HW
LayerCount: 2
Fore
SplineSet
250 187.5 m 1
 312.5 187.5 l 1
 312.5 250 l 1
 375 250 l 1
 375 500 l 1
 312.5 500 l 1
 312.5 625 l 1
 125 625 l 1
 125 812.5 l 1
 62.5 812.5 l 1
 62.5 187.5 l 1
 250 187.5 l 1
187.5 250 m 1
 125 250 l 1
 125 562.5 l 1
 250 562.5 l 1
 250 437.5 l 1
 312.5 437.5 l 1
 312.5 312.5 l 1
 250 312.5 l 1
 250 250 l 1
 187.5 250 l 1
EndSplineSet
EndChar

StartChar: c
Encoding: 99 99 28
Width: 500
Flags: HW
LayerCount: 2
Fore
SplineSet
187.5 187.5 m 1
 250 187.5 l 1
 250 250 l 1
 187.5 250 l 1
 187.5 312.5 l 1
 125 312.5 l 1
 125 562.5 l 1
 187.5 562.5 l 1
 187.5 625 l 1
 250 625 l 1
 250 562.5 l 1
 312.5 562.5 l 1
 312.5 687.5 l 1
 125 687.5 l 1
 125 625 l 1
 62.5 625 l 1
 62.5 250 l 1
 125 250 l 1
 125 187.5 l 1
 187.5 187.5 l 1
250 250 m 1
 312.5 250 l 1
 312.5 312.5 l 1
 375 312.5 l 1
 375 375 l 1
 437.5 375 l 1
 437.5 437.5 l 1
 312.5 437.5 l 1
 312.5 375 l 1
 250 375 l 1
 250 250 l 1
EndSplineSet
EndChar

StartChar: d
Encoding: 100 100 29
Width: 500
Flags: HWO
LayerCount: 2
Fore
SplineSet
125 187.5 m 5
 187.5 187.5 l 5
 187.5 250 l 5
 312.5 250 l 5
 312.5 187.5 l 5
 375 187.5 l 5
 375 312.5 l 5
 312.5 312.5 l 5
 312.5 812.5 l 5
 250 812.5 l 5
 250 625 l 5
 62.5 625 l 5
 62.5 562.5 l 5
 0 562.5 l 5
 0 250 l 5
 62.5 250 l 5
 62.5 187.5 l 5
 125 187.5 l 5
125 312.5 m 5
 62.5 312.5 l 5
 62.5 500 l 5
 125 500 l 5
 125 562.5 l 5
 187.5 562.5 l 5
 187.5 500 l 5
 250 500 l 5
 250 437.5 l 5
 187.5 437.5 l 5
 187.5 312.5 l 5
 125 312.5 l 5
EndSplineSet
EndChar

StartChar: e
Encoding: 101 101 30
Width: 500
Flags: HW
LayerCount: 2
Fore
SplineSet
250 187.5 m 1
 312.5 187.5 l 1
 312.5 250 l 1
 375 250 l 1
 375 375 l 1
 312.5 375 l 1
 312.5 312.5 l 1
 250 312.5 l 1
 250 250 l 1
 187.5 250 l 1
 187.5 312.5 l 1
 125 312.5 l 1
 125 375 l 1
 250 375 l 1
 250 437.5 l 1
 375 437.5 l 1
 375 625 l 1
 312.5 625 l 1
 312.5 687.5 l 1
 125 687.5 l 1
 125 625 l 1
 62.5 625 l 1
 62.5 250 l 1
 125 250 l 1
 125 187.5 l 1
 250 187.5 l 1
250 500 m 1
 187.5 500 l 1
 187.5 437.5 l 1
 125 437.5 l 1
 125 562.5 l 1
 187.5 562.5 l 1
 187.5 625 l 1
 250 625 l 1
 250 562.5 l 1
 312.5 562.5 l 1
 312.5 500 l 1
 250 500 l 1
EndSplineSet
EndChar

StartChar: f
Encoding: 102 102 31
Width: 500
Flags: HW
LayerCount: 2
Fore
SplineSet
62.5 625 m 1
 62.5 562.5 l 1
 187.5 562.5 l 1
 187.5 187.5 l 1
 250 187.5 l 1
 250 562.5 l 1
 312.5 562.5 l 1
 312.5 625 l 1
 250 625 l 1
 250 687.5 l 1
 312.5 687.5 l 1
 312.5 750 l 1
 375 750 l 1
 375 812.5 l 1
 250 812.5 l 1
 250 750 l 1
 187.5 750 l 1
 187.5 625 l 1
 62.5 625 l 1
EndSplineSet
EndChar

StartChar: g
Encoding: 103 103 32
Width: 500
Flags: HW
LayerCount: 2
Fore
SplineSet
250 125 m 1
 312.5 125 l 1
 312.5 250 l 1
 375 250 l 1
 375 500 l 1
 437.5 500 l 1
 437.5 625 l 1
 312.5 625 l 1
 312.5 687.5 l 1
 125 687.5 l 1
 125 625 l 1
 62.5 625 l 1
 62.5 375 l 1
 312.5 375 l 1
 312.5 312.5 l 1
 250 312.5 l 1
 250 187.5 l 1
 125 187.5 l 1
 125 250 l 1
 62.5 250 l 1
 62.5 125 l 1
 250 125 l 1
250 437.5 m 1
 187.5 437.5 l 1
 125 437.5 l 1
 125 562.5 l 1
 187.5 562.5 l 1
 187.5 625 l 1
 250 625 l 1
 250 562.5 l 1
 312.5 562.5 l 1
 312.5 437.5 l 1
 250 437.5 l 1
EndSplineSet
EndChar

StartChar: h
Encoding: 104 104 33
Width: 500
Flags: HW
LayerCount: 2
Fore
SplineSet
375 250 m 1
 375 312.5 l 1
 375 562.5 l 1
 312.5 562.5 l 1
 312.5 625 l 1
 125 625 l 1
 125 812.5 l 1
 62.5 812.5 l 1
 62.5 187.5 l 1
 125 187.5 l 1
 125 500 l 1
 187.5 500 l 1
 187.5 562.5 l 1
 250 562.5 l 1
 250 500 l 1
 312.5 500 l 1
 312.5 187.5 l 1
 375 187.5 l 1
 375 250 l 1
EndSplineSet
EndChar

StartChar: i
Encoding: 105 105 34
Width: 500
Flags: HW
LayerCount: 2
Fore
SplineSet
250 250 m 1
 250 312.5 l 1
 250 625 l 1
 187.5 625 l 1
 187.5 187.5 l 1
 250 187.5 l 1
 250 250 l 1
250 687.5 m 1
 312.5 687.5 l 1
 312.5 812.5 l 1
 187.5 812.5 l 1
 187.5 687.5 l 1
 250 687.5 l 1
EndSplineSet
EndChar

StartChar: j
Encoding: 106 106 35
Width: 500
Flags: HW
LayerCount: 2
Fore
SplineSet
62.5 250 m 1
 62.5 187.5 l 1
 250 187.5 l 1
 250 312.5 l 1
 312.5 312.5 l 1
 312.5 625 l 1
 250 625 l 1
 250 375 l 1
 187.5 375 l 1
 187.5 250 l 1
 62.5 250 l 1
312.5 687.5 m 1
 375 687.5 l 1
 375 812.5 l 1
 250 812.5 l 1
 250 687.5 l 1
 312.5 687.5 l 1
EndSplineSet
EndChar

StartChar: k
Encoding: 107 107 36
Width: 500
Flags: HW
LayerCount: 2
Fore
SplineSet
437.5 250 m 1
 437.5 312.5 l 1
 375 312.5 l 1
 375 375 l 1
 312.5 375 l 1
 312.5 437.5 l 1
 250 437.5 l 1
 250 562.5 l 1
 312.5 562.5 l 1
 312.5 625 l 1
 375 625 l 1
 375 687.5 l 1
 250 687.5 l 1
 250 625 l 1
 187.5 625 l 1
 187.5 500 l 1
 125 500 l 1
 125 812.5 l 1
 62.5 812.5 l 1
 62.5 187.5 l 1
 125 187.5 l 1
 125 375 l 1
 250 375 l 1
 250 312.5 l 1
 312.5 312.5 l 1
 312.5 250 l 1
 375 250 l 1
 375 187.5 l 1
 437.5 187.5 l 1
 437.5 250 l 1
EndSplineSet
EndChar

StartChar: l
Encoding: 108 108 37
Width: 500
Flags: HW
LayerCount: 2
Fore
SplineSet
250 250 m 1
 250 312.5 l 1
 250 687.5 l 1
 312.5 687.5 l 1
 312.5 750 l 1
 250 750 l 1
 250 812.5 l 1
 187.5 812.5 l 1
 187.5 187.5 l 1
 250 187.5 l 1
 250 250 l 1
EndSplineSet
EndChar

StartChar: m
Encoding: 109 109 38
Width: 500
Flags: HW
LayerCount: 2
Fore
SplineSet
437.5 250 m 1
 437.5 312.5 l 1
 437.5 687.5 l 1
 312.5 687.5 l 1
 312.5 625 l 1
 250 625 l 1
 250 687.5 l 1
 0 687.5 l 1
 0 187.5 l 1
 62.5 187.5 l 1
 62.5 500 l 1
 125 500 l 1
 125 625 l 1
 187.5 625 l 1
 187.5 187.5 l 1
 250 187.5 l 1
 250 500 l 1
 312.5 500 l 1
 312.5 625 l 1
 375 625 l 1
 375 187.5 l 1
 437.5 187.5 l 1
 437.5 250 l 1
EndSplineSet
EndChar

StartChar: n
Encoding: 110 110 39
Width: 500
Flags: HW
LayerCount: 2
Fore
SplineSet
437.5 250 m 1
 437.5 312.5 l 1
 437.5 625 l 1
 375 625 l 1
 375 687.5 l 1
 125 687.5 l 1
 125 187.5 l 1
 187.5 187.5 l 1
 187.5 562.5 l 1
 250 562.5 l 1
 250 625 l 1
 312.5 625 l 1
 312.5 562.5 l 1
 375 562.5 l 1
 375 187.5 l 1
 437.5 187.5 l 1
 437.5 250 l 1
EndSplineSet
EndChar

StartChar: o
Encoding: 111 111 40
Width: 500
Flags: HW
LayerCount: 2
Fore
SplineSet
250 187.5 m 1
 312.5 187.5 l 1
 312.5 250 l 1
 375 250 l 1
 375 312.5 l 1
 437.5 312.5 l 1
 437.5 625 l 1
 375 625 l 1
 375 687.5 l 1
 125 687.5 l 1
 125 625 l 1
 62.5 625 l 1
 62.5 250 l 1
 125 250 l 1
 125 187.5 l 1
 250 187.5 l 1
250 250 m 1
 187.5 250 l 1
 187.5 312.5 l 1
 125 312.5 l 1
 125 562.5 l 1
 187.5 562.5 l 1
 187.5 625 l 1
 312.5 625 l 1
 312.5 562.5 l 1
 375 562.5 l 1
 375 375 l 1
 312.5 375 l 1
 312.5 312.5 l 1
 250 312.5 l 1
 250 250 l 1
EndSplineSet
EndChar

StartChar: p
Encoding: 112 112 41
Width: 500
Flags: HW
LayerCount: 2
Fore
SplineSet
125 187.5 m 1
 125 250 l 1
 125 312.5 l 1
 312.5 312.5 l 1
 312.5 375 l 1
 375 375 l 1
 375 437.5 l 1
 437.5 437.5 l 1
 437.5 562.5 l 1
 375 562.5 l 1
 375 500 l 1
 312.5 500 l 1
 312.5 437.5 l 1
 250 437.5 l 1
 250 375 l 1
 125 375 l 1
 125 562.5 l 1
 187.5 562.5 l 1
 187.5 625 l 1
 312.5 625 l 1
 312.5 562.5 l 1
 375 562.5 l 1
 375 687.5 l 1
 125 687.5 l 1
 125 625 l 1
 62.5 625 l 1
 62.5 125 l 1
 125 125 l 1
 125 187.5 l 1
EndSplineSet
EndChar

StartChar: q
Encoding: 113 113 42
Width: 500
Flags: HW
LayerCount: 2
Fore
SplineSet
437.5 187.5 m 1
 437.5 250 l 1
 437.5 687.5 l 1
 187.5 687.5 l 1
 187.5 625 l 1
 125 625 l 1
 125 562.5 l 1
 62.5 562.5 l 1
 62.5 375 l 1
 125 375 l 1
 125 312.5 l 1
 312.5 312.5 l 1
 312.5 375 l 1
 375 375 l 1
 375 125 l 1
 437.5 125 l 1
 437.5 187.5 l 1
250 375 m 1
 187.5 375 l 1
 187.5 437.5 l 1
 125 437.5 l 1
 125 500 l 1
 187.5 500 l 1
 187.5 562.5 l 1
 250 562.5 l 1
 250 625 l 1
 375 625 l 1
 375 500 l 1
 312.5 500 l 1
 312.5 437.5 l 1
 250 437.5 l 1
 250 375 l 1
EndSplineSet
EndChar

StartChar: r
Encoding: 114 114 43
Width: 500
Flags: HW
LayerCount: 2
Fore
SplineSet
125 250 m 1
 125 312.5 l 1
 125 500 l 1
 187.5 500 l 1
 187.5 562.5 l 1
 250 562.5 l 1
 250 625 l 1
 312.5 625 l 1
 312.5 562.5 l 1
 375 562.5 l 1
 375 687.5 l 1
 187.5 687.5 l 1
 187.5 625 l 1
 125 625 l 1
 125 687.5 l 1
 62.5 687.5 l 1
 62.5 187.5 l 1
 125 187.5 l 1
 125 250 l 1
EndSplineSet
EndChar

StartChar: s
Encoding: 115 115 44
Width: 500
Flags: HW
LayerCount: 2
Fore
SplineSet
62.5 312.5 m 1
 62.5 250 l 1
 125 250 l 1
 125 187.5 l 1
 375 187.5 l 1
 375 250 l 1
 437.5 250 l 1
 437.5 375 l 1
 375 375 l 1
 375 437.5 l 1
 312.5 437.5 l 1
 312.5 500 l 1
 187.5 500 l 1
 187.5 625 l 1
 312.5 625 l 1
 312.5 562.5 l 1
 437.5 562.5 l 1
 437.5 625 l 1
 375 625 l 1
 375 687.5 l 1
 125 687.5 l 1
 125 625 l 1
 62.5 625 l 1
 62.5 500 l 1
 125 500 l 1
 125 437.5 l 1
 187.5 437.5 l 1
 187.5 375 l 1
 312.5 375 l 1
 312.5 250 l 1
 187.5 250 l 1
 187.5 312.5 l 1
 62.5 312.5 l 1
EndSplineSet
EndChar

StartChar: t
Encoding: 116 116 45
Width: 500
Flags: HW
LayerCount: 2
Fore
SplineSet
62.5 625 m 1
 62.5 562.5 l 1
 125 562.5 l 1
 125 250 l 1
 187.5 250 l 1
 187.5 187.5 l 1
 250 187.5 l 1
 250 250 l 1
 375 250 l 1
 375 375 l 1
 312.5 375 l 1
 312.5 312.5 l 1
 187.5 312.5 l 1
 187.5 562.5 l 1
 375 562.5 l 1
 375 625 l 1
 187.5 625 l 1
 187.5 812.5 l 1
 125 812.5 l 1
 125 625 l 1
 62.5 625 l 1
EndSplineSet
EndChar

StartChar: u
Encoding: 117 117 46
Width: 500
Flags: HW
LayerCount: 2
Fore
SplineSet
375 187.5 m 1
 437.5 187.5 l 1
 437.5 250 l 1
 375 250 l 1
 375 687.5 l 1
 312.5 687.5 l 1
 312.5 375 l 1
 250 375 l 1
 250 250 l 1
 187.5 250 l 1
 187.5 312.5 l 1
 125 312.5 l 1
 125 687.5 l 1
 62.5 687.5 l 1
 62.5 250 l 1
 125 250 l 1
 125 187.5 l 1
 250 187.5 l 1
 250 250 l 1
 312.5 250 l 1
 312.5 187.5 l 1
 375 187.5 l 1
EndSplineSet
EndChar

StartChar: v
Encoding: 118 118 47
Width: 500
Flags: HW
LayerCount: 2
Fore
SplineSet
312.5 250 m 1
 312.5 312.5 l 1
 375 312.5 l 1
 375 437.5 l 1
 437.5 437.5 l 1
 437.5 562.5 l 1
 500 562.5 l 1
 500 687.5 l 1
 437.5 687.5 l 1
 437.5 625 l 1
 375 625 l 1
 375 500 l 1
 312.5 500 l 1
 312.5 375 l 1
 250 375 l 1
 250 437.5 l 1
 187.5 437.5 l 1
 187.5 562.5 l 1
 125 562.5 l 1
 125 687.5 l 1
 62.5 687.5 l 1
 62.5 500 l 1
 125 500 l 1
 125 375 l 1
 187.5 375 l 1
 187.5 250 l 1
 250 250 l 1
 250 187.5 l 1
 312.5 187.5 l 1
 312.5 250 l 1
EndSplineSet
EndChar

StartChar: w
Encoding: 119 119 48
Width: 500
Flags: HW
LayerCount: 2
Fore
SplineSet
375 250 m 1
 375 312.5 l 1
 437.5 312.5 l 1
 437.5 500 l 1
 500 500 l 1
 500 687.5 l 1
 437.5 687.5 l 1
 437.5 625 l 1
 375 625 l 1
 375 375 l 1
 312.5 375 l 1
 312.5 500 l 1
 250 500 l 1
 250 625 l 1
 187.5 625 l 1
 187.5 375 l 1
 125 375 l 1
 125 562.5 l 1
 62.5 562.5 l 1
 62.5 687.5 l 1
 0 687.5 l 1
 0 500 l 1
 62.5 500 l 1
 62.5 312.5 l 1
 125 312.5 l 1
 125 187.5 l 1
 187.5 187.5 l 1
 187.5 312.5 l 1
 312.5 312.5 l 1
 312.5 187.5 l 1
 375 187.5 l 1
 375 250 l 1
EndSplineSet
EndChar

StartChar: x
Encoding: 120 120 49
Width: 500
Flags: HW
LayerCount: 2
Fore
SplineSet
62.5 625 m 1
 62.5 562.5 l 1
 125 562.5 l 1
 125 500 l 1
 187.5 500 l 1
 187.5 375 l 1
 125 375 l 1
 125 312.5 l 1
 62.5 312.5 l 1
 62.5 187.5 l 1
 125 187.5 l 1
 125 250 l 1
 187.5 250 l 1
 187.5 312.5 l 1
 312.5 312.5 l 1
 312.5 250 l 1
 375 250 l 1
 375 187.5 l 1
 437.5 187.5 l 1
 437.5 312.5 l 1
 375 312.5 l 1
 375 375 l 1
 312.5 375 l 1
 312.5 437.5 l 1
 375 437.5 l 1
 375 500 l 1
 437.5 500 l 1
 437.5 625 l 1
 375 625 l 1
 375 562.5 l 1
 312.5 562.5 l 1
 312.5 500 l 1
 250 500 l 1
 250 562.5 l 1
 187.5 562.5 l 1
 187.5 625 l 1
 62.5 625 l 1
EndSplineSet
EndChar

StartChar: y
Encoding: 121 121 50
Width: 500
Flags: HW
LayerCount: 2
Fore
SplineSet
125 187.5 m 1
 125 125 l 1
 250 125 l 1
 250 187.5 l 1
 312.5 187.5 l 1
 312.5 250 l 1
 375 250 l 1
 375 687.5 l 1
 312.5 687.5 l 1
 312.5 500 l 1
 250 500 l 1
 250 375 l 1
 187.5 375 l 1
 187.5 437.5 l 1
 125 437.5 l 1
 125 687.5 l 1
 62.5 687.5 l 1
 62.5 375 l 1
 125 375 l 1
 125 312.5 l 1
 250 312.5 l 1
 250 250 l 1
 187.5 250 l 1
 187.5 187.5 l 1
 125 187.5 l 1
312.5 312.5 m 1
 250 312.5 l 1
 250 375 l 1
 312.5 375 l 1
 312.5 312.5 l 1
EndSplineSet
EndChar

StartChar: z
Encoding: 122 122 51
Width: 500
Flags: HW
LayerCount: 2
Fore
SplineSet
62.5 687.5 m 1
 62.5 625 l 1
 250 625 l 1
 250 500 l 1
 187.5 500 l 1
 187.5 437.5 l 1
 125 437.5 l 1
 125 312.5 l 1
 62.5 312.5 l 1
 62.5 187.5 l 1
 437.5 187.5 l 1
 437.5 250 l 1
 187.5 250 l 1
 187.5 375 l 1
 250 375 l 1
 250 437.5 l 1
 312.5 437.5 l 1
 312.5 562.5 l 1
 375 562.5 l 1
 375 625 l 1
 437.5 625 l 1
 437.5 687.5 l 1
 62.5 687.5 l 1
EndSplineSet
EndChar

StartChar: 0
Encoding: 48 48 52
Width: 500
Flags: HW
LayerCount: 2
Fore
SplineSet
250 187.5 m 1
 312.5 187.5 l 1
 312.5 250 l 1
 375 250 l 1
 375 687.5 l 1
 312.5 687.5 l 1
 312.5 750 l 1
 125 750 l 1
 125 687.5 l 1
 62.5 687.5 l 1
 62.5 250 l 1
 125 250 l 1
 125 187.5 l 1
 250 187.5 l 1
250 250 m 1
 187.5 250 l 1
 187.5 312.5 l 1
 125 312.5 l 1
 125 625 l 1
 187.5 625 l 1
 187.5 687.5 l 1
 250 687.5 l 1
 250 625 l 1
 312.5 625 l 1
 312.5 312.5 l 1
 250 312.5 l 1
 250 250 l 1
EndSplineSet
EndChar

StartChar: 1
Encoding: 49 49 53
Width: 500
Flags: HW
LayerCount: 2
Fore
SplineSet
312.5 250 m 1
 312.5 312.5 l 1
 312.5 750 l 1
 250 750 l 1
 250 687.5 l 1
 187.5 687.5 l 1
 187.5 562.5 l 1
 250 562.5 l 1
 250 187.5 l 1
 312.5 187.5 l 1
 312.5 250 l 1
EndSplineSet
EndChar

StartChar: 2
Encoding: 50 50 54
Width: 500
Flags: HW
LayerCount: 2
Fore
SplineSet
375 250 m 1
 312.5 250 l 1
 187.5 250 l 1
 187.5 312.5 l 1
 250 312.5 l 1
 250 375 l 1
 312.5 375 l 1
 312.5 437.5 l 1
 375 437.5 l 1
 375 500 l 1
 437.5 500 l 1
 437.5 687.5 l 1
 375 687.5 l 1
 375 750 l 1
 125 750 l 1
 125 687.5 l 1
 62.5 687.5 l 1
 62.5 562.5 l 1
 125 562.5 l 1
 125 625 l 1
 187.5 625 l 1
 187.5 687.5 l 1
 312.5 687.5 l 1
 312.5 625 l 1
 375 625 l 1
 375 562.5 l 1
 312.5 562.5 l 1
 312.5 500 l 1
 250 500 l 1
 250 437.5 l 1
 187.5 437.5 l 1
 187.5 375 l 1
 125 375 l 1
 125 312.5 l 1
 62.5 312.5 l 1
 62.5 187.5 l 1
 437.5 187.5 l 1
 437.5 250 l 1
 375 250 l 1
EndSplineSet
EndChar

StartChar: 3
Encoding: 51 51 55
Width: 500
Flags: HW
LayerCount: 2
Fore
SplineSet
250 500 m 1
 250 437.5 l 1
 375 437.5 l 1
 375 312.5 l 1
 312.5 312.5 l 1
 312.5 250 l 1
 187.5 250 l 1
 187.5 312.5 l 1
 125 312.5 l 1
 125 375 l 1
 62.5 375 l 1
 62.5 250 l 1
 125 250 l 1
 125 187.5 l 1
 375 187.5 l 1
 375 250 l 1
 437.5 250 l 1
 437.5 437.5 l 1
 375 437.5 l 1
 375 500 l 1
 250 500 l 1
375 500 m 1
 437.5 500 l 1
 437.5 687.5 l 1
 375 687.5 l 1
 375 750 l 1
 125 750 l 1
 125 687.5 l 1
 62.5 687.5 l 1
 62.5 562.5 l 1
 125 562.5 l 1
 125 625 l 1
 187.5 625 l 1
 187.5 687.5 l 1
 312.5 687.5 l 1
 312.5 625 l 1
 375 625 l 1
 375 500 l 1
EndSplineSet
EndChar

StartChar: 4
Encoding: 52 52 56
Width: 500
Flags: HW
LayerCount: 2
Fore
SplineSet
375 250 m 1
 375 312.5 l 1
 437.5 312.5 l 1
 437.5 375 l 1
 375 375 l 1
 375 750 l 1
 250 750 l 1
 250 687.5 l 1
 187.5 687.5 l 1
 187.5 562.5 l 1
 125 562.5 l 1
 125 437.5 l 1
 62.5 437.5 l 1
 62.5 312.5 l 1
 312.5 312.5 l 1
 312.5 187.5 l 1
 375 187.5 l 1
 375 250 l 1
250 375 m 1
 187.5 375 l 1
 187.5 500 l 1
 250 500 l 1
 250 625 l 1
 312.5 625 l 1
 312.5 375 l 1
 250 375 l 1
EndSplineSet
EndChar

StartChar: 5
Encoding: 53 53 57
Width: 500
Flags: HW
LayerCount: 2
Fore
SplineSet
312.5 187.5 m 1
 375 187.5 l 1
 375 250 l 1
 437.5 250 l 1
 437.5 500 l 1
 375 500 l 1
 375 562.5 l 1
 125 562.5 l 1
 125 687.5 l 1
 437.5 687.5 l 1
 437.5 750 l 1
 62.5 750 l 1
 62.5 437.5 l 1
 187.5 437.5 l 1
 187.5 500 l 1
 312.5 500 l 1
 312.5 437.5 l 1
 375 437.5 l 1
 375 312.5 l 1
 312.5 312.5 l 1
 312.5 250 l 1
 187.5 250 l 1
 187.5 312.5 l 1
 125 312.5 l 1
 125 375 l 1
 62.5 375 l 1
 62.5 250 l 1
 125 250 l 1
 125 187.5 l 1
 312.5 187.5 l 1
EndSplineSet
EndChar

StartChar: 6
Encoding: 54 54 58
Width: 500
Flags: HW
LayerCount: 2
Fore
SplineSet
312.5 187.5 m 1
 375 187.5 l 1
 375 250 l 1
 437.5 250 l 1
 437.5 500 l 1
 375 500 l 1
 375 562.5 l 1
 125 562.5 l 1
 125 625 l 1
 187.5 625 l 1
 187.5 687.5 l 1
 312.5 687.5 l 1
 312.5 625 l 1
 437.5 625 l 1
 437.5 687.5 l 1
 375 687.5 l 1
 375 750 l 1
 125 750 l 1
 125 687.5 l 1
 62.5 687.5 l 1
 62.5 250 l 1
 125 250 l 1
 125 187.5 l 1
 312.5 187.5 l 1
250 250 m 1
 187.5 250 l 1
 187.5 312.5 l 1
 125 312.5 l 1
 125 437.5 l 1
 187.5 437.5 l 1
 187.5 500 l 1
 312.5 500 l 1
 312.5 437.5 l 1
 375 437.5 l 1
 375 312.5 l 1
 312.5 312.5 l 1
 312.5 250 l 1
 250 250 l 1
EndSplineSet
EndChar

StartChar: 7
Encoding: 55 55 59
Width: 500
Flags: HW
LayerCount: 2
Fore
SplineSet
62.5 750 m 1
 62.5 687.5 l 1
 312.5 687.5 l 1
 312.5 562.5 l 1
 250 562.5 l 1
 250 375 l 1
 187.5 375 l 1
 187.5 187.5 l 1
 312.5 187.5 l 1
 312.5 437.5 l 1
 375 437.5 l 1
 375 562.5 l 1
 437.5 562.5 l 1
 437.5 750 l 1
 62.5 750 l 1
EndSplineSet
EndChar

StartChar: 8
Encoding: 56 56 60
Width: 500
Flags: HW
LayerCount: 2
Fore
SplineSet
312.5 187.5 m 1
 375 187.5 l 1
 375 250 l 1
 437.5 250 l 1
 437.5 437.5 l 1
 375 437.5 l 1
 375 500 l 1
 437.5 500 l 1
 437.5 687.5 l 1
 375 687.5 l 1
 375 750 l 1
 125 750 l 1
 125 687.5 l 1
 62.5 687.5 l 1
 62.5 500 l 1
 125 500 l 1
 125 437.5 l 1
 62.5 437.5 l 1
 62.5 250 l 1
 125 250 l 1
 125 187.5 l 1
 312.5 187.5 l 1
250 250 m 1
 187.5 250 l 1
 187.5 312.5 l 1
 125 312.5 l 1
 125 375 l 1
 187.5 375 l 1
 187.5 437.5 l 1
 312.5 437.5 l 1
 312.5 375 l 1
 375 375 l 1
 375 312.5 l 1
 312.5 312.5 l 1
 312.5 250 l 1
 250 250 l 1
250 500 m 1
 187.5 500 l 1
 187.5 562.5 l 1
 125 562.5 l 1
 125 625 l 1
 187.5 625 l 1
 187.5 687.5 l 1
 312.5 687.5 l 1
 312.5 625 l 1
 375 625 l 1
 375 562.5 l 1
 312.5 562.5 l 1
 312.5 500 l 1
 250 500 l 1
EndSplineSet
EndChar

StartChar: 9
Encoding: 57 57 61
Width: 500
Flags: HW
LayerCount: 2
Fore
SplineSet
62.5 312.5 m 1
 62.5 250 l 1
 125 250 l 1
 125 187.5 l 1
 375 187.5 l 1
 375 250 l 1
 437.5 250 l 1
 437.5 687.5 l 1
 375 687.5 l 1
 375 750 l 1
 125 750 l 1
 125 687.5 l 1
 62.5 687.5 l 1
 62.5 437.5 l 1
 125 437.5 l 1
 125 375 l 1
 375 375 l 1
 375 312.5 l 1
 312.5 312.5 l 1
 312.5 250 l 1
 187.5 250 l 1
 187.5 312.5 l 1
 62.5 312.5 l 1
250 437.5 m 1
 187.5 437.5 l 1
 187.5 500 l 1
 125 500 l 1
 125 625 l 1
 187.5 625 l 1
 187.5 687.5 l 1
 312.5 687.5 l 1
 312.5 625 l 1
 375 625 l 1
 375 500 l 1
 312.5 500 l 1
 312.5 437.5 l 1
 250 437.5 l 1
EndSplineSet
EndChar

StartChar: period
Encoding: 46 46 62
Width: 500
Flags: H
LayerCount: 2
Fore
SplineSet
312.5 312.5 m 1
 375 312.5 l 1
 375 562.5 l 1
 125 562.5 l 1
 125 312.5 l 1
 312.5 312.5 l 1
EndSplineSet
EndChar

StartChar: colon
Encoding: 58 58 63
Width: 500
Flags: H
LayerCount: 2
Fore
SplineSet
187.5 187.5 m 1
 250 187.5 l 1
 250 250 l 1
 312.5 250 l 1
 312.5 375 l 1
 187.5 375 l 1
 187.5 312.5 l 1
 125 312.5 l 1
 125 187.5 l 1
 187.5 187.5 l 1
187.5 437.5 m 1
 250 437.5 l 1
 250 500 l 1
 312.5 500 l 1
 312.5 625 l 1
 187.5 625 l 1
 187.5 562.5 l 1
 125 562.5 l 1
 125 437.5 l 1
 187.5 437.5 l 1
EndSplineSet
EndChar

StartChar: slash
Encoding: 47 47 64
Width: 500
Flags: H
LayerCount: 2
Fore
SplineSet
187.5 250 m 1
 187.5 312.5 l 1
 250 312.5 l 1
 250 437.5 l 1
 312.5 437.5 l 1
 312.5 562.5 l 1
 375 562.5 l 1
 375 750 l 1
 312.5 750 l 1
 312.5 625 l 1
 250 625 l 1
 250 500 l 1
 187.5 500 l 1
 187.5 375 l 1
 125 375 l 1
 125 187.5 l 1
 187.5 187.5 l 1
 187.5 250 l 1
EndSplineSet
EndChar
